G04 #@! TF.GenerationSoftware,KiCad,Pcbnew,(5.1.0)-1*
G04 #@! TF.CreationDate,2019-10-08T13:20:11+02:00*
G04 #@! TF.ProjectId,cosmicpi_1.7,636f736d-6963-4706-995f-312e372e6b69,rev?*
G04 #@! TF.SameCoordinates,Original*
G04 #@! TF.FileFunction,Soldermask,Bot*
G04 #@! TF.FilePolarity,Negative*
%FSLAX46Y46*%
G04 Gerber Fmt 4.6, Leading zero omitted, Abs format (unit mm)*
G04 Created by KiCad (PCBNEW (5.1.0)-1) date 2019-10-08 13:20:11*
%MOMM*%
%LPD*%
G04 APERTURE LIST*
%ADD10C,3.900000*%
%ADD11C,4.100000*%
%ADD12O,2.100000X2.100000*%
%ADD13R,2.100000X2.100000*%
%ADD14R,5.480000X2.820000*%
%ADD15C,0.100000*%
%ADD16C,3.400000*%
%ADD17R,3.900000X3.900000*%
%ADD18O,2.300000X1.600000*%
%ADD19C,1.850000*%
G04 APERTURE END LIST*
D10*
X32550000Y-75700000D03*
X32950000Y-144500000D03*
X46600000Y-75600000D03*
D11*
X128500000Y-187120000D03*
D10*
X128000000Y-77750000D03*
X140500000Y-77750000D03*
X128000000Y-147750000D03*
X140500000Y-147750000D03*
X46750000Y-144500000D03*
X117000000Y-79750000D03*
X117000000Y-148750000D03*
D11*
X128550000Y-33370000D03*
X39550000Y-187120000D03*
X39550000Y-33370000D03*
D12*
X121250000Y-94210000D03*
D13*
X121250000Y-96750000D03*
D12*
X121250000Y-139710000D03*
D13*
X121250000Y-142250000D03*
D12*
X121250000Y-133210000D03*
D13*
X121250000Y-135750000D03*
D12*
X121250000Y-87710000D03*
D13*
X121250000Y-90250000D03*
D12*
X42000000Y-84540000D03*
D13*
X42000000Y-82000000D03*
D12*
X42000000Y-91040000D03*
D13*
X42000000Y-88500000D03*
D12*
X42000000Y-136540000D03*
D13*
X42000000Y-134000000D03*
D12*
X42000000Y-130040000D03*
D13*
X42000000Y-127500000D03*
D14*
X21000000Y-54380000D03*
X21000000Y-45620000D03*
D15*
G36*
X24570567Y-100754695D02*
G01*
X24665213Y-100768734D01*
X24758028Y-100791983D01*
X24848116Y-100824217D01*
X24934612Y-100865127D01*
X25016681Y-100914317D01*
X25093533Y-100971315D01*
X25164429Y-101035571D01*
X25228685Y-101106467D01*
X25285683Y-101183319D01*
X25334873Y-101265388D01*
X25375783Y-101351884D01*
X25408017Y-101441972D01*
X25431266Y-101534787D01*
X25445305Y-101629433D01*
X25450000Y-101725000D01*
X25450000Y-103675000D01*
X25445305Y-103770567D01*
X25431266Y-103865213D01*
X25408017Y-103958028D01*
X25375783Y-104048116D01*
X25334873Y-104134612D01*
X25285683Y-104216681D01*
X25228685Y-104293533D01*
X25164429Y-104364429D01*
X25093533Y-104428685D01*
X25016681Y-104485683D01*
X24934612Y-104534873D01*
X24848116Y-104575783D01*
X24758028Y-104608017D01*
X24665213Y-104631266D01*
X24570567Y-104645305D01*
X24475000Y-104650000D01*
X22525000Y-104650000D01*
X22429433Y-104645305D01*
X22334787Y-104631266D01*
X22241972Y-104608017D01*
X22151884Y-104575783D01*
X22065388Y-104534873D01*
X21983319Y-104485683D01*
X21906467Y-104428685D01*
X21835571Y-104364429D01*
X21771315Y-104293533D01*
X21714317Y-104216681D01*
X21665127Y-104134612D01*
X21624217Y-104048116D01*
X21591983Y-103958028D01*
X21568734Y-103865213D01*
X21554695Y-103770567D01*
X21550000Y-103675000D01*
X21550000Y-101725000D01*
X21554695Y-101629433D01*
X21568734Y-101534787D01*
X21591983Y-101441972D01*
X21624217Y-101351884D01*
X21665127Y-101265388D01*
X21714317Y-101183319D01*
X21771315Y-101106467D01*
X21835571Y-101035571D01*
X21906467Y-100971315D01*
X21983319Y-100914317D01*
X22065388Y-100865127D01*
X22151884Y-100824217D01*
X22241972Y-100791983D01*
X22334787Y-100768734D01*
X22429433Y-100754695D01*
X22525000Y-100750000D01*
X24475000Y-100750000D01*
X24570567Y-100754695D01*
X24570567Y-100754695D01*
G37*
D10*
X23500000Y-102700000D03*
D15*
G36*
X21433315Y-96054093D02*
G01*
X21515827Y-96066333D01*
X21596742Y-96086601D01*
X21675281Y-96114702D01*
X21750687Y-96150367D01*
X21822235Y-96193251D01*
X21889234Y-96242941D01*
X21951041Y-96298959D01*
X22007059Y-96360766D01*
X22056749Y-96427765D01*
X22099633Y-96499313D01*
X22135298Y-96574719D01*
X22163399Y-96653258D01*
X22183667Y-96734173D01*
X22195907Y-96816685D01*
X22200000Y-96900000D01*
X22200000Y-99100000D01*
X22195907Y-99183315D01*
X22183667Y-99265827D01*
X22163399Y-99346742D01*
X22135298Y-99425281D01*
X22099633Y-99500687D01*
X22056749Y-99572235D01*
X22007059Y-99639234D01*
X21951041Y-99701041D01*
X21889234Y-99757059D01*
X21822235Y-99806749D01*
X21750687Y-99849633D01*
X21675281Y-99885298D01*
X21596742Y-99913399D01*
X21515827Y-99933667D01*
X21433315Y-99945907D01*
X21350000Y-99950000D01*
X19650000Y-99950000D01*
X19566685Y-99945907D01*
X19484173Y-99933667D01*
X19403258Y-99913399D01*
X19324719Y-99885298D01*
X19249313Y-99849633D01*
X19177765Y-99806749D01*
X19110766Y-99757059D01*
X19048959Y-99701041D01*
X18992941Y-99639234D01*
X18943251Y-99572235D01*
X18900367Y-99500687D01*
X18864702Y-99425281D01*
X18836601Y-99346742D01*
X18816333Y-99265827D01*
X18804093Y-99183315D01*
X18800000Y-99100000D01*
X18800000Y-96900000D01*
X18804093Y-96816685D01*
X18816333Y-96734173D01*
X18836601Y-96653258D01*
X18864702Y-96574719D01*
X18900367Y-96499313D01*
X18943251Y-96427765D01*
X18992941Y-96360766D01*
X19048959Y-96298959D01*
X19110766Y-96242941D01*
X19177765Y-96193251D01*
X19249313Y-96150367D01*
X19324719Y-96114702D01*
X19403258Y-96086601D01*
X19484173Y-96066333D01*
X19566685Y-96054093D01*
X19650000Y-96050000D01*
X21350000Y-96050000D01*
X21433315Y-96054093D01*
X21433315Y-96054093D01*
G37*
D16*
X20500000Y-98000000D03*
D17*
X26500000Y-98000000D03*
D18*
X18012500Y-79500000D03*
X18012500Y-72500000D03*
D19*
X20712500Y-78500000D03*
X20712500Y-73500000D03*
M02*
