G04 #@! TF.GenerationSoftware,KiCad,Pcbnew,(5.1.0)-1*
G04 #@! TF.CreationDate,2019-10-08T13:20:11+02:00*
G04 #@! TF.ProjectId,cosmicpi_1.7,636f736d-6963-4706-995f-312e372e6b69,rev?*
G04 #@! TF.SameCoordinates,Original*
G04 #@! TF.FileFunction,Profile,NP*
%FSLAX46Y46*%
G04 Gerber Fmt 4.6, Leading zero omitted, Abs format (unit mm)*
G04 Created by KiCad (PCBNEW (5.1.0)-1) date 2019-10-08 13:20:11*
%MOMM*%
%LPD*%
G04 APERTURE LIST*
%ADD10C,0.150000*%
%ADD11C,0.800000*%
G04 APERTURE END LIST*
D10*
X16500000Y-150800000D02*
X16500000Y-202000000D01*
X19300000Y-147200000D02*
X19300000Y-150800000D01*
X19300000Y-150800000D02*
X16500000Y-150800000D01*
X16500000Y-147200000D02*
X19300000Y-147200000D01*
X19200000Y-140800000D02*
X16500000Y-140800000D01*
X19200000Y-137200000D02*
X19200000Y-140800000D01*
X16500000Y-137200000D02*
X19200000Y-137200000D01*
X16500000Y-140800000D02*
X16500000Y-147200000D01*
X16500000Y-137200000D02*
X16500000Y-137200000D01*
X144500000Y-187500000D02*
X130000000Y-202000000D01*
X144500000Y-32500000D02*
X130000000Y-18000000D01*
X18000000Y-57000000D02*
X16500000Y-57000000D01*
X16500000Y-57000000D02*
X16500000Y-137200000D01*
X18000000Y-43000000D02*
X16500000Y-43000000D01*
X18000000Y-43000000D02*
X18000000Y-57000000D01*
D11*
X120500000Y-164250000D02*
X134800000Y-164250000D01*
X122000000Y-61250000D02*
X136500000Y-61250000D01*
X111000000Y-133250000D02*
X111000000Y-158250000D01*
X111000000Y-68250000D02*
X111000000Y-88500000D01*
X144500000Y-61250000D02*
X140500000Y-61250000D01*
X111000000Y-112250000D02*
X111000000Y-88500000D01*
X111000000Y-133250000D02*
X111000000Y-116250000D01*
X111000000Y-61250000D02*
X111000000Y-68250000D01*
X111000000Y-164250000D02*
X111000000Y-158250000D01*
X111000000Y-61250000D02*
X122000000Y-61250000D01*
X111000000Y-164250000D02*
X120500000Y-164250000D01*
X144500000Y-164250000D02*
X138750000Y-164250000D01*
X133750000Y-146250000D02*
X133750000Y-80750000D01*
D10*
X130000000Y-18000000D02*
X16500000Y-18000000D01*
X144500000Y-187500000D02*
X144500000Y-32500000D01*
X16500000Y-202000000D02*
X130000000Y-202000000D01*
X16500000Y-18000000D02*
X16500000Y-43000000D01*
M02*
