M48
; DRILL file {KiCad (5.1.0)-1} date 13/10/2019 09:07:10
; FORMAT={-:-/ absolute / inch / decimal}
; #@! TF.CreationDate,2019-10-13T09:07:10+02:00
; #@! TF.GenerationSoftware,Kicad,Pcbnew,(5.1.0)-1
; #@! TF.FileFunction,Plated,1,4,PTH
FMAT,2
INCH
T1C0.0098
T2C0.0157
T3C0.0181
T4C0.0236
T5C0.0335
T6C0.0394
%
G90
G05
T1
X1.2933Y-3.7697
X1.2933Y-3.8091
T2
X0.6988Y-4.1634
X0.7087Y-1.4665
X0.7185Y-4.6063
X0.7283Y-3.3661
X0.7283Y-3.6122
X0.748Y-2.7717
X0.7559Y-2.4252
X0.7564Y-1.3484
X0.7638Y-0.9606
X0.7874Y-2.313
X0.7953Y-5.5669
X0.7972Y-0.876
X0.8031Y-5.9685
X0.811Y-5.1102
X0.8169Y-0.7677
X0.8366Y-4.7047
X0.8366Y-4.872
X0.8425Y-4.7559
X0.8563Y-1.6929
X0.874Y-5.3071
X0.876Y-1.1713
X0.8805Y-5.7008
X0.8957Y-6.2402
X0.9055Y-1.0039
X0.9055Y-1.0787
X0.9055Y-1.3484
X0.9154Y-4.5571
X0.9252Y-3.7303
X0.937Y-0.9055
X0.9449Y-1.2205
X0.9685Y-3.4173
X0.9843Y-1.4665
X1.0039Y-1.3484
X1.0315Y-2.6614
X1.0709Y-2.4173
X1.0945Y-1.1654
X1.1024Y-0.8268
X1.1319Y-1.8209
X1.1339Y-1.1339
X1.1417Y-4.872
X1.1516Y-1.0433
X1.2205Y-0.9606
X1.2598Y-1.4665
X1.2894Y-2.1457
X1.2894Y-2.3228
X1.3143Y-4.7631
X1.3465Y-4.9764
X1.3937Y-1.0079
X1.4094Y-1.063
X1.4173Y-0.7795
X1.4764Y-6.25
X1.4882Y-0.8031
X1.5276Y-4.6457
X1.5453Y-4.9114
X1.5453Y-5.2362
X1.5551Y-4.7539
X1.5551Y-5.4724
X1.565Y-1.5256
X1.5748Y-4.5079
X1.5748Y-4.5965
X1.5945Y-2.313
X1.6142Y-1.5276
X1.6339Y-2.1358
X1.7087Y-2.3937
X1.7224Y-3.937
X1.7323Y-3.7303
X1.7323Y-4.0453
X1.752Y-4.3307
X1.752Y-4.6457
X1.7717Y-1.5591
X1.7717Y-5.4528
X1.7815Y-2.1752
X1.7913Y-1.8898
X1.7913Y-5.3248
X1.8209Y-1.3091
X1.8504Y-1.6634
X1.8799Y-1.4665
X1.8898Y-1.9685
X1.8898Y-4.5669
X1.9193Y-3.3169
X1.9587Y-4.0453
X1.9587Y-4.311
X1.9882Y-1.5846
X1.9882Y-5.1181
X1.998Y-4.7835
X2.0Y-2.1417
X2.0079Y-4.311
X2.0276Y-1.752
X2.0276Y-1.7913
X2.0374Y-4.6161
X2.0472Y-1.378
X2.0472Y-3.3366
X2.0472Y-3.4941
X2.0472Y-3.7205
X2.1024Y-1.8268
X2.126Y-4.0256
X2.1457Y-5.4528
X2.1654Y-5.3051
X2.1752Y-3.1594
X2.1752Y-5.3642
X2.185Y-2.5984
X2.185Y-2.8937
X2.185Y-3.7205
X2.1949Y-2.4016
X2.2047Y-3.9665
X2.2047Y-4.1043
X2.2047Y-4.4291
X2.2343Y-3.435
X2.2343Y-4.9213
X2.2343Y-5.0295
X2.2343Y-5.0984
X2.2343Y-5.2362
X2.2539Y-3.1791
X2.2933Y-0.7776
X2.2933Y-2.0866
X2.2933Y-5.3346
X2.2992Y-6.4724
X2.3031Y-2.0079
X2.3031Y-4.4291
X2.3031Y-5.0591
X2.313Y-2.9035
X2.313Y-3.6122
X2.313Y-3.9665
X2.3228Y-1.378
X2.3228Y-1.6535
X2.3327Y-1.7872
X2.3422Y-2.2011
X2.3425Y-1.4862
X2.3425Y-2.0669
X2.3425Y-2.4016
X2.3524Y-4.7441
X2.3543Y-1.8819
X2.3622Y-2.2441
X2.378Y-2.1732
X2.3819Y-4.1043
X2.4016Y-1.8406
X2.4016Y-1.8976
X2.4016Y-2.126
X2.4114Y-1.8012
X2.4311Y-1.5748
X2.4311Y-3.9764
X2.4508Y-2.6772
X2.4508Y-3.8681
X2.4606Y-3.7106
X2.4803Y-1.3091
X2.4803Y-1.9764
X2.4803Y-2.0236
X2.4902Y-2.2736
X2.5098Y-4.6161
X2.5118Y-2.216
X2.5197Y-1.5059
X2.5197Y-3.4252
X2.5197Y-4.1831
X2.5295Y-1.2795
X2.5787Y-2.1654
X2.5787Y-2.4213
X2.5984Y-2.2933
X2.6083Y-1.4764
X2.6142Y-2.126
X2.6181Y-1.8602
X2.628Y-1.3091
X2.6378Y-1.6339
X2.6378Y-2.1575
X2.6673Y-3.1594
X2.6748Y-1.4941
X2.6772Y-2.2756
X2.687Y-1.3091
X2.687Y-2.1358
X2.6969Y-2.5689
X2.7067Y-1.4665
X2.7067Y-1.9488
X2.7165Y-4.1831
X2.7263Y-2.1338
X2.7264Y-3.3957
X2.7362Y-2.216
X2.7559Y-2.4213
X2.7756Y-2.7461
X2.7756Y-3.4941
X2.7953Y-1.4646
X2.8051Y-2.6476
X2.8346Y-2.1024
X2.8445Y-2.2343
X2.8445Y-4.2717
X2.874Y-2.3327
X2.874Y-2.9134
X2.8839Y-3.5728
X2.8839Y-4.0846
X2.8839Y-6.2402
X2.8937Y-1.9488
X2.8937Y-4.5866
X2.9035Y-3.2185
X2.9134Y-4.3701
X2.9215Y-1.4648
X2.9232Y-1.6634
X2.951Y-1.553
X2.9528Y-2.3327
X2.9626Y-2.5492
X2.9626Y-3.7697
X2.9724Y-1.2697
X2.9724Y-2.2539
X2.9823Y-1.4567
X2.9921Y-3.3169
X3.002Y-4.0846
X3.0217Y-3.5236
X3.0315Y-1.3681
X3.0315Y-1.4469
X3.061Y-2.0374
X3.063Y-1.6614
X3.0709Y-2.2343
X3.0787Y-1.7244
X3.0827Y-4.122
X3.0906Y-2.0768
X3.0945Y-1.9055
X3.0945Y-2.0079
X3.1004Y-2.7165
X3.1004Y-3.0906
X3.1024Y-1.6929
X3.1102Y-3.6614
X3.1102Y-3.8878
X3.1102Y-6.4488
X3.1201Y-2.4213
X3.1496Y-1.437
X3.1575Y-1.5827
X3.1575Y-2.4646
X3.1594Y-2.2638
X3.1693Y-3.6811
X3.1693Y-4.5571
X3.1791Y-1.7323
X3.189Y-1.6339
X3.189Y-4.1043
X3.189Y-4.3898
X3.2047Y-6.5827
X3.2087Y-2.0177
X3.2205Y-1.5827
X3.2244Y-4.7244
X3.2382Y-2.7559
X3.2677Y-2.2539
X3.2776Y-1.8012
X3.2776Y-1.8504
X3.2913Y-3.2913
X3.2972Y-1.6142
X3.2972Y-1.9587
X3.2972Y-2.7362
X3.2992Y-6.5591
X3.3071Y-1.4961
X3.3169Y-3.4744
X3.3169Y-4.626
X3.3366Y-2.6969
X3.3858Y-2.5787
X3.4016Y-6.5591
X3.4016Y-7.0315
X3.4055Y-1.6043
X3.4055Y-3.2677
X3.4055Y-4.0453
X3.4154Y-1.2992
X3.4154Y-1.4075
X3.4154Y-2.7165
X3.4154Y-3.7894
X3.4154Y-4.4587
X3.4252Y-1.6634
X3.4252Y-2.8445
X3.4252Y-3.878
X3.4547Y-1.7717
X3.4547Y-4.6161
X3.4646Y-4.7736
X3.4843Y-3.9469
X3.4843Y-4.4882
X3.4843Y-4.5571
X3.5039Y-2.7362
X3.5118Y-3.6772
X3.5118Y-6.4724
X3.5236Y-3.3366
X3.5335Y-3.6417
X3.5531Y-3.1594
X3.5531Y-4.0256
X3.5531Y-4.6161
X3.5728Y-4.7736
X3.5827Y-2.5492
X3.5925Y-1.3976
X3.5984Y-6.5748
X3.6024Y-3.3169
X3.6024Y-3.937
X3.6122Y-3.75
X3.622Y-1.9882
X3.6319Y-2.2047
X3.6319Y-2.5
X3.6319Y-3.2874
X3.6319Y-3.8976
X3.6516Y-3.8484
X3.6614Y-2.5492
X3.6614Y-4.0551
X3.6772Y-3.4882
X3.6772Y-6.4567
X3.6909Y-4.3504
X3.7008Y-3.7205
X3.7106Y-4.5276
X3.7106Y-4.7736
X3.75Y-2.3228
X3.75Y-2.7165
X3.7795Y-3.6417
X3.8287Y-2.0768
X3.8287Y-3.376
X3.8484Y-4.6752
X3.8563Y-3.6476
X3.8661Y-1.4488
X3.8878Y-2.5591
X3.8878Y-4.4094
X3.9134Y-6.378
X3.9469Y-2.7165
X3.9665Y-3.7106
X3.9665Y-3.9469
X3.9764Y-1.6929
X3.9764Y-4.2717
X4.0079Y-1.6299
X4.0394Y-1.5276
X4.0709Y-1.4173
X4.0846Y-1.5551
X4.1181Y-1.6772
X4.1181Y-1.9685
X4.2598Y-6.4646
X4.3406Y-2.2736
X4.3504Y-2.0669
X4.374Y-4.4587
X4.374Y-4.498
X4.374Y-4.5374
X4.3898Y-2.1555
X4.4193Y-0.7776
X4.4587Y-1.8209
X4.4783Y-1.9882
X4.5039Y-1.7008
X4.5276Y-1.6535
X4.5748Y-1.6929
X4.5866Y-2.3031
X4.7087Y-6.8067
X4.7539Y-1.437
X4.8031Y-1.939
X4.9606Y-1.8307
X4.9803Y-1.6929
X5.0236Y-1.7874
X5.0787Y-0.8071
X5.0787Y-1.6142
X5.0984Y-2.0472
X5.0984Y-2.2047
X5.1476Y-2.3425
X5.2559Y-1.3091
X5.2756Y-1.9291
X5.3445Y-6.4626
X5.3839Y-6.4626
X5.4134Y-1.6535
X5.4134Y-2.4154
X5.4232Y-6.4626
X5.4528Y-2.4154
X5.4921Y-2.0472
X5.4921Y-2.4154
X5.5512Y-1.6339
X5.6201Y-1.3878
X5.6201Y-2.3327
X5.6299Y-2.0669
T3
X0.9622Y-1.7961
X0.9622Y-2.1409
T5
X0.8155Y-2.8937
X0.8155Y-3.0906
T6
X1.6535Y-5.2756
X1.6535Y-5.3756
X4.7736Y-5.2445
X4.7736Y-5.3445
X4.7736Y-5.5004
X4.7736Y-5.6004
X1.6535Y-3.2283
X1.6535Y-3.3283
X1.6535Y-5.0197
X1.6535Y-5.1197
X1.6535Y-3.4843
X1.6535Y-3.5843
X4.7736Y-3.4531
X4.7736Y-3.5531
X4.7736Y-3.7091
X4.7736Y-3.8091
T4
G00X0.6954Y-2.8543
M15
G01X0.7229Y-2.8543
M16
G05
G00X0.7229Y-3.1299
M15
G01X0.6954Y-3.1299
M16
G05
T6
G00X0.8071Y-3.8189
M15
G01X0.8071Y-3.8976
M16
G05
G00X0.8858Y-4.0433
M15
G01X0.9646Y-4.0433
M16
G05
G00X1.0433Y-3.8189
M15
G01X1.0433Y-3.8976
M16
G05
T0
M30
